HIERARCHY
ROOT Hips
{
	OFFSET -0.179506 -22.333345 2.821913
	CHANNELS 6 Xposition Yposition Zposition Zrotation Yrotation Xrotation 
	JOINT LeftUpLeg
	{
		OFFSET 6.951974 -9.140623 -0.681533
		CHANNELS 3 Zrotation Yrotation Xrotation
		JOINT LeftLeg
		{
			OFFSET 3.427654 -37.519855 -0.449580
			CHANNELS 3 Zrotation Yrotation Xrotation
			JOINT LeftFoot
			{
				OFFSET -1.359570 -39.796059 -4.369333
				CHANNELS 3 Zrotation Yrotation Xrotation
				JOINT LeftToe
				{
					OFFSET 2.635814 -5.579078 11.928840
					CHANNELS 3 Zrotation Yrotation Xrotation
					End Site
					{
						OFFSET 0.000000 0.000000 0.000000
					}
				}
			}
		}
	}
	JOINT RightUpLeg
	{
		OFFSET -6.767048 -9.052170 -0.431982
		CHANNELS 3 Zrotation Yrotation Xrotation
		JOINT RightLeg
		{
			OFFSET -3.829005 -38.256897 -0.885003
			CHANNELS 3 Zrotation Yrotation Xrotation
			JOINT RightFoot
			{
				OFFSET 1.577377 -39.841461 -4.231180
				CHANNELS 3 Zrotation Yrotation Xrotation
				JOINT RightToe
				{
					OFFSET -2.537174 -4.814398 12.334795
					CHANNELS 3 Zrotation Yrotation Xrotation
					End Site
					{
						OFFSET 0.000000 0.000000 0.000000
					}
				}
			}
		}
	}
	JOINT Spine
	{
		OFFSET -0.253288 10.896323 -2.669631
		CHANNELS 3 Zrotation Yrotation Xrotation
		JOINT Spine1
		{
			OFFSET 0.548704 13.518043 0.109247
			CHANNELS 3 Zrotation Yrotation Xrotation
			JOINT Spine2
			{
				OFFSET 0.145701 5.292222 2.542457
				CHANNELS 3 Zrotation Yrotation Xrotation
				JOINT Neck
				{
					OFFSET -0.277840 21.387037 -4.285703
					CHANNELS 3 Zrotation Yrotation Xrotation
					JOINT Head
					{
						OFFSET 0.515184 6.496960 5.134897
						CHANNELS 3 Zrotation Yrotation Xrotation
						End Site
						{
							OFFSET 0.000000 0.000000 0.000000
						}
					}
				}
				JOINT LeftShoulder
				{
					OFFSET 7.884473 12.174932 -3.408961
					CHANNELS 3 Zrotation Yrotation Xrotation
					JOINT LeftArm
					{
						OFFSET 9.097692 3.046888 -0.886815
						CHANNELS 3 Zrotation Yrotation Xrotation
						JOINT LeftForeArm
						{
							OFFSET 25.961220 -1.277207 -2.745643
							CHANNELS 3 Zrotation Yrotation Xrotation
							JOINT LeftHand
							{
								OFFSET 24.923361 0.898606 -0.117091
								CHANNELS 3 Zrotation Yrotation Xrotation
								End Site
								{
									OFFSET 0.000000 0.000000 0.000000
								}
							}
						}
					}
				}
				JOINT RightShoulder
				{
					OFFSET -8.175920 11.883285 -3.861528
					CHANNELS 3 Zrotation Yrotation Xrotation
					JOINT RightArm
					{
						OFFSET -9.601238 3.255117 -0.914307
						CHANNELS 3 Zrotation Yrotation Xrotation
						JOINT RightForeArm
						{
							OFFSET -25.374195 -1.332924 -2.140099
							CHANNELS 3 Zrotation Yrotation Xrotation
							JOINT RightHand
							{
								OFFSET -25.529810 0.777228 -0.555919
								CHANNELS 3 Zrotation Yrotation Xrotation
								End Site
								{
									OFFSET 0.000000 0.000000 0.000000
								}
							}
						}
					}
				}
			}
		}
	}
}
MOTION
Frames: 13
Frame Time: 0.033333
314.440796 303.708618 94.843140 -55.521322 -1.521981 88.961535 -0.677030 0.527162 1.501177 -1.849575 -5.207100 -1.380396 2.447781 11.876818 -6.012702 nan nan nan -3.078801 -1.597653 2.652082 3.403610 3.750705 -2.817599 5.825351 -3.325594 2.074740 nan nan nan -2.524051 2.950820 -3.217348 3.199751 -4.219374 12.035441 -0.549802 0.350358 -5.847065 -2.237100 -0.234742 5.077828 1.754845 0.552443 2.448105 -29.605516 1.439509 1.172765 -59.084750 -6.948120 20.372626 10.197513 -18.772831 -1.042599 5.892839 -17.841027 2.228331 29.871641 1.497208 0.975935 59.448780 1.817739 11.942120 -18.061228 18.420044 -21.197539 -9.957478 13.513340 -11.207833 
314.834259 303.690918 94.758705 -54.484150 -1.241938 88.741451 -0.582149 0.202329 0.898655 -1.822073 -5.598453 -0.464024 2.664376 11.663225 -6.176327 nan nan nan -3.005930 -1.890321 2.662781 3.623547 3.486472 -2.569249 5.626584 -3.748039 1.790446 nan nan nan -1.883545 2.761021 -2.037707 3.164407 -4.419803 11.204122 -0.531577 0.113320 -5.634248 -2.291043 -0.737854 4.455206 1.685282 0.496603 2.824401 -29.576511 1.129349 1.257728 -59.477810 -7.426545 20.398543 10.159183 -18.504423 -0.998408 5.976166 -17.994385 2.030438 29.322049 1.338427 0.520950 59.457658 1.704914 11.624906 -17.796332 18.792884 -20.980981 -9.760260 13.599503 -11.377422 
314.860382 303.699524 94.726250 -54.380784 -1.192973 88.809085 -0.548969 0.197047 0.747669 -1.796177 -5.583008 -0.413458 2.507012 11.587526 -6.042342 nan nan nan -2.964540 -1.894902 2.557961 3.629591 3.421976 -2.530000 5.590807 -3.764870 1.770760 nan nan nan -1.787125 2.718408 -2.030897 3.142652 -4.443073 11.128214 -0.534253 0.083542 -5.638605 -2.338829 -0.766787 4.525567 1.731194 0.502957 2.792695 -29.631043 1.141811 1.236417 -59.412364 -7.367074 20.384468 10.150063 -18.496905 -0.999137 6.100774 -18.209117 1.900986 29.271556 1.286690 0.446956 59.412529 1.668213 11.556822 -17.661064 18.710308 -21.025785 -9.880625 13.749058 -11.532130 
314.815887 303.703491 94.720673 -54.365784 -1.223713 88.734254 -0.652460 0.150595 1.318980 -1.485356 -5.610874 -1.306630 2.617871 11.610707 -5.585553 nan nan nan -2.993809 -1.888229 2.679338 3.616974 3.372774 -2.575429 5.651604 -3.755256 1.777778 nan nan nan -1.893187 2.695158 -1.973879 3.157897 -4.438621 11.275907 -0.499107 0.087261 -5.751536 -2.399021 -0.744551 4.710934 1.813715 0.503775 2.560636 -29.595768 1.193798 1.189898 -59.455191 -7.430321 20.371601 10.170310 -18.375259 -1.204167 5.906407 -18.186141 2.035929 29.277659 1.266159 0.428071 59.472326 1.722486 11.665295 -17.820089 18.516581 -21.224875 -9.608807 13.798597 -11.550648 
314.805786 303.718933 94.674713 -54.347993 -1.187572 88.701374 -0.643364 0.101800 1.327416 -1.420936 -5.672581 -1.320170 2.742562 11.765728 -5.569127 nan nan nan -2.948553 -1.902190 2.674232 3.618160 3.437786 -2.491666 5.606869 -3.860918 1.644069 nan nan nan -1.872807 2.696145 -1.920251 3.147883 -4.434837 11.261001 -0.497734 0.078197 -5.679695 -2.337119 -0.863564 4.497931 1.767833 0.517200 2.695038 -29.529778 1.254048 1.126877 -59.584269 -7.623587 20.254197 10.198979 -18.244165 -1.406609 5.918582 -17.511985 2.560788 29.242802 1.182057 0.402834 59.490947 1.837221 11.689554 -17.720553 18.627102 -20.990806 -9.471816 13.441141 -11.125847 
314.592926 303.588379 94.625412 -55.322816 -1.000363 88.032555 -0.346881 0.596913 2.808250 -1.446981 -5.446191 -2.240315 2.857936 11.896435 -5.362259 nan nan nan -2.832988 -1.828790 3.542228 3.612864 4.090038 -2.617159 5.813611 -3.544424 1.498153 nan nan nan -1.312492 2.870802 -1.346941 2.984548 -4.006512 11.566872 -0.696756 0.226567 -5.456259 -1.989309 -0.434482 3.734229 1.242998 0.264371 2.441156 -29.243327 1.932635 0.376082 -60.069827 -7.820130 20.215165 10.082356 -18.115002 -1.839754 5.466316 -16.734722 3.176947 29.101320 0.828364 0.335821 59.598942 2.339906 11.912162 -17.536359 18.862138 -20.607826 -8.728310 13.006789 -10.449657 
314.220978 303.176392 94.581696 -57.211321 -0.672212 86.803509 -0.123269 1.480674 5.654776 -1.157505 -4.984402 -4.049805 3.014712 12.407900 -5.160675 nan nan nan -2.746815 -1.647301 5.200831 3.556867 5.282828 -2.926404 6.282168 -2.859208 1.456898 nan nan nan -0.033593 3.447931 -1.088020 2.582008 -3.177585 12.428216 -1.098457 0.511219 -5.125586 -1.468387 0.093742 3.668535 0.399861 -0.209625 2.382607 -28.913951 2.110279 -0.070036 -60.909611 -7.892174 19.876172 10.133471 -17.467275 -2.886678 4.097239 -15.943087 3.632993 28.740319 0.900336 0.615872 59.690296 2.640980 11.557415 -17.371170 18.951509 -20.835300 -6.870890 12.586255 -9.887288 
314.259766 303.175415 94.533249 -57.083140 -0.622473 86.897528 -0.129098 1.412315 5.446377 -1.092271 -4.942348 -3.956094 2.948079 12.410601 -5.120651 nan nan nan -2.740097 -1.623328 5.016103 3.597801 5.208263 -2.854460 6.263351 -2.854733 1.446955 nan nan nan 0.093806 3.462317 -1.092901 2.589697 -3.174209 12.278551 -1.100605 0.451587 -5.053852 -1.578527 -0.017452 3.753091 0.379833 -0.245660 2.353280 -28.805303 2.153143 -0.092467 -61.138251 -7.715813 20.020728 9.863414 -17.309626 -2.698684 4.133550 -16.158007 2.968003 28.683359 0.793728 0.462397 59.616317 2.543032 11.558683 -17.302723 19.033383 -20.749490 -6.989064 12.680971 -9.979572 
316.851715 300.275024 93.517242 -45.219176 -0.793816 91.255005 -5.198910 -3.879564 -2.533027 2.756096 -10.422889 -0.071516 3.439711 11.848468 -4.936404 nan nan nan -7.168046 -5.383130 2.964591 7.532316 0.717990 -5.574064 5.134481 -6.023302 1.579732 nan nan nan 5.281610 2.195219 -6.883664 1.128558 -7.787816 10.046282 -2.200788 -2.273245 -2.573135 -7.644447 -8.062758 3.824786 2.319831 4.835506 3.833873 -31.579893 -2.017606 2.914078 -61.994863 -8.425601 18.535895 8.963295 -16.195597 -2.285723 1.055380 -13.636277 1.210562 23.530933 -0.507689 -2.157323 59.364039 -0.820727 6.620638 -14.163169 21.964835 -19.393847 -0.279719 11.591537 -6.894409 
316.786743 300.384827 93.182159 -45.016413 -0.631981 91.313208 -4.970387 -3.539996 -2.529384 2.856287 -10.613969 -0.386848 2.874896 11.720038 -4.291695 nan nan nan -7.061072 -5.395606 2.764256 7.636703 0.612608 -5.458696 4.904069 -6.048406 1.144664 nan nan nan 5.443301 2.219081 -6.630976 1.126568 -7.806446 9.907667 -2.115175 -2.326586 -2.707610 -7.761785 -8.052955 4.054693 2.397052 4.798830 3.535944 -31.943284 -2.178978 2.901128 -61.372667 -8.324625 18.549799 8.376203 -16.024953 -1.407566 2.581533 -14.816182 1.148467 23.757475 -0.475246 -2.404122 58.936548 -1.023152 6.281755 -13.852211 21.944313 -19.295444 -2.021967 12.396912 -6.720803 
316.847717 300.839050 92.990074 -43.476421 -0.722547 91.994470 -4.692919 -4.039388 -4.040833 2.532035 -11.190926 0.478522 2.306951 11.295002 -3.916869 nan nan nan -6.784128 -5.585468 2.168356 7.562892 -0.132045 -5.731913 4.390193 -6.700242 1.102311 nan nan nan 4.579760 1.678653 -6.607362 1.497031 -8.411130 9.194698 -1.691470 -2.550491 -2.829589 -8.359013 -8.372604 4.512410 3.115162 5.192109 3.184109 -32.403748 -2.438494 3.254277 -60.558478 -8.415199 18.541734 7.966654 -16.066927 -1.170964 5.364809 -15.551009 0.367568 24.181993 -0.462188 -2.673433 58.512704 -1.210504 6.338713 -13.582361 21.890941 -19.064529 -4.830278 13.065940 -7.112665 
316.775055 301.038086 92.833328 -42.915697 -0.604798 91.983957 -4.472641 -4.011126 -4.202623 2.481231 -11.724245 0.781387 2.024470 11.307382 -3.939758 nan nan nan -6.523154 -5.646093 2.472818 7.490027 -0.201308 -6.085679 4.160577 -7.017612 1.036196 nan nan nan 4.356162 1.485680 -6.424371 1.647977 -8.662051 9.160356 -1.516736 -2.614483 -2.926611 -8.555129 -8.397482 4.821199 3.396867 5.291060 2.917857 -32.922084 -2.741028 3.482662 -59.587373 -8.543155 18.362546 7.830649 -16.263648 -0.454941 7.315582 -16.489809 0.623756 24.454741 -0.235690 -2.732307 58.216060 -1.382751 6.136374 -13.382728 21.998024 -18.812605 -6.862451 13.731347 -7.225702 
316.701904 301.092438 92.723007 -42.839060 -0.518624 91.821641 -4.328957 -3.754524 -3.844742 2.482689 -11.944937 0.582011 1.830846 11.275230 -3.846595 nan nan nan -6.465267 -5.700502 2.778276 7.515774 -0.188739 -6.143249 4.154306 -7.067822 0.960115 nan nan nan 4.382848 1.459641 -6.220732 1.669428 -8.704536 9.187911 -1.483904 -2.632464 -2.942640 -8.625189 -8.359782 5.049815 3.494204 5.218671 2.722449 -33.216233 -2.962717 3.648119 -59.084019 -8.547587 18.214823 7.753689 -16.346566 -0.162916 8.400872 -17.137104 0.675512 24.635127 -0.017639 -2.698310 58.026158 -1.482101 5.908831 -13.312479 22.064292 -18.775871 -8.008814 14.145251 -7.245394 
